<svg width="159" height="31" viewBox="0 0 159 31" fill="none" xmlns="http://www.w3.org/2000/svg">
<g clip-path="url(#clip0_13_80)">
<path d="M128 15.5002C128 21.8472 131.817 27.2999 137.278 29.6971C137.234 28.6148 137.27 27.3155 137.548 26.1378C137.846 24.8796 139.542 17.6918 139.542 17.6918C139.542 17.6918 139.047 16.7021 139.047 15.2394C139.047 12.9424 140.378 11.2268 142.036 11.2268C143.446 11.2268 144.128 12.2858 144.128 13.5539C144.128 14.9712 143.224 17.0912 142.759 19.0547C142.37 20.6989 143.583 22.04 145.205 22.04C148.142 22.04 150.12 18.2681 150.12 13.799C150.12 10.4018 147.832 7.85911 143.67 7.85911C138.968 7.85911 136.039 11.3655 136.039 15.2822C136.039 16.6326 136.437 17.5849 137.061 18.3223C137.348 18.661 137.388 18.7973 137.284 19.1862C137.209 19.4714 137.039 20.158 136.968 20.4301C136.865 20.8227 136.547 20.963 136.192 20.8181C134.026 19.934 133.018 17.5623 133.018 14.8963C133.018 10.4933 136.731 5.21357 144.096 5.21357C150.013 5.21357 153.908 9.49593 153.908 14.0928C153.908 20.1732 150.528 24.7158 145.545 24.7158C143.872 24.7158 142.297 23.8113 141.758 22.7838C141.758 22.7838 140.858 26.3551 140.668 27.0447C140.339 28.2398 139.696 29.4343 139.108 30.3652C140.534 30.7869 142.013 31.001 143.501 31.0008C152.06 31.0008 159 24.0611 159 15.5002C159 6.93976 152.06 0 143.501 0C134.94 0 128 6.93976 128 15.5002Z" fill="#CB1F27"/>
</g>
<g clip-path="url(#clip1_13_80)">
<path d="M98 15.5C98 6.93964 91.0604 0 82.5 0C73.9396 0 67 6.93952 67 15.5C67 23.2364 72.6682 29.649 80.0781 30.8117V19.9805H76.1426V15.5H80.0781V12.0852C80.0781 8.20047 82.3922 6.05469 85.9326 6.05469C87.6286 6.05469 89.4023 6.35742 89.4023 6.35742V10.1719H87.4479C85.5223 10.1719 84.9219 11.3667 84.9219 12.5925V15.5H89.2207L88.5335 19.9805H84.9219V30.8117C92.3318 29.649 98 23.2366 98 15.5Z" fill="#1877F2"/>
<path d="M88.5335 19.9805L89.2207 15.5H84.9219V12.5925C84.9219 11.3666 85.5224 10.1719 87.4479 10.1719H89.4023V6.35742C89.4023 6.35742 87.6286 6.05469 85.9326 6.05469C82.3922 6.05469 80.0781 8.20047 80.0781 12.0852V15.5H76.1426V19.9805H80.0781V30.8117C80.8793 30.9373 81.689 31.0002 82.5 31C83.311 31.0002 84.1207 30.9373 84.9219 30.8117V19.9805H88.5335Z" fill="white"/>
</g>
<path d="M23.7344 0H7.26562C3.25293 0 0 3.25293 0 7.26562V23.7344C0 27.7471 3.25293 31 7.26562 31H23.7344C27.7471 31 31 27.7471 31 23.7344V7.26562C31 3.25293 27.7471 0 23.7344 0Z" fill="url(#paint0_radial_13_80)"/>
<path d="M23.7344 0H7.26562C3.25293 0 0 3.25293 0 7.26562V23.7344C0 27.7471 3.25293 31 7.26562 31H23.7344C27.7471 31 31 27.7471 31 23.7344V7.26562C31 3.25293 27.7471 0 23.7344 0Z" fill="url(#paint1_radial_13_80)"/>
<path d="M15.1105 4C11.8218 4 11.409 4.01441 10.1174 4.07314C8.82824 4.13223 7.94825 4.33628 7.17834 4.63574C6.38179 4.94502 5.7062 5.35879 5.03316 6.03207C4.35952 6.70523 3.94574 7.38082 3.6355 8.17701C3.33519 8.94716 3.1309 9.82752 3.0729 11.1161C3.01514 12.4078 3 12.8207 3 16.1095C3 19.3983 3.01453 19.8098 3.07314 21.1013C3.13248 22.3905 3.33652 23.2705 3.63574 24.0404C3.94526 24.837 4.35904 25.5125 5.03232 26.1856C5.70523 26.8592 6.38082 27.274 7.17677 27.5833C7.94729 27.8827 8.82739 28.0868 10.1163 28.1459C11.408 28.2046 11.8205 28.219 15.109 28.219C18.398 28.219 18.8095 28.2046 20.1011 28.1459C21.3903 28.0868 22.2712 27.8827 23.0417 27.5833C23.8379 27.274 24.5125 26.8592 25.1853 26.1856C25.859 25.5125 26.2726 24.837 26.583 24.0408C26.8807 23.2705 27.0851 22.3903 27.1456 21.1016C27.2036 19.81 27.2188 19.3983 27.2188 16.1095C27.2188 12.8207 27.2036 12.408 27.1456 11.1163C27.0851 9.82715 26.8807 8.94729 26.583 8.17737C26.2726 7.38082 25.859 6.70523 25.1853 6.03207C24.5118 5.35855 23.8382 4.94477 23.041 4.63586C22.269 4.33628 21.3886 4.13211 20.0994 4.07314C18.8077 4.01441 18.3965 4 15.1067 4H15.1105ZM14.0241 6.18223C14.3466 6.18175 14.7064 6.18223 15.1105 6.18223C18.3438 6.18223 18.7269 6.19386 20.0037 6.25186C21.1844 6.30587 21.8252 6.50313 22.2521 6.66891C22.8172 6.88833 23.2201 7.15074 23.6437 7.57469C24.0675 7.99852 24.3298 8.40212 24.5498 8.96727C24.7156 9.39352 24.9131 10.0343 24.9669 11.215C25.0249 12.4916 25.0375 12.875 25.0375 16.1067C25.0375 19.3385 25.0249 19.722 24.9669 20.9984C24.9129 22.1791 24.7156 22.8199 24.5498 23.2463C24.3304 23.8114 24.0675 24.2138 23.6437 24.6374C23.2199 25.0612 22.8175 25.3235 22.2521 25.5431C21.8257 25.7096 21.1844 25.9063 20.0037 25.9604C18.7272 26.0184 18.3438 26.0309 15.1105 26.0309C11.877 26.0309 11.4938 26.0184 10.2173 25.9604C9.03664 25.9059 8.39582 25.7086 7.9686 25.5428C7.40357 25.3233 6.99985 25.061 6.57602 24.6372C6.15219 24.2133 5.8899 23.8107 5.66988 23.2453C5.5041 22.8189 5.30659 22.1781 5.25283 20.9974C5.19482 19.7209 5.1832 19.3375 5.1832 16.1037C5.1832 12.87 5.19482 12.4886 5.25283 11.212C5.30684 10.0313 5.5041 9.39049 5.66988 8.96363C5.88942 8.39849 6.15219 7.99488 6.57614 7.57105C6.99997 7.14723 7.40357 6.88482 7.96872 6.66491C8.39557 6.49841 9.03664 6.30163 10.2173 6.24738C11.3344 6.19688 11.7673 6.18175 14.0241 6.1792V6.18223ZM21.5744 8.19287C20.7722 8.19287 20.1213 8.84314 20.1213 9.64551C20.1213 10.4478 20.7722 11.0986 21.5744 11.0986C22.3767 11.0986 23.0276 10.4478 23.0276 9.64551C23.0276 8.84327 22.3767 8.19239 21.5744 8.19239V8.19287ZM15.1105 9.89073C11.6762 9.89073 8.89182 12.6752 8.89182 16.1095C8.89182 19.5438 11.6762 22.3269 15.1105 22.3269C18.5448 22.3269 21.3283 19.5438 21.3283 16.1095C21.3283 12.6753 18.5446 9.89073 15.1102 9.89073H15.1105ZM15.1105 12.073C17.3397 12.073 19.147 13.88 19.147 16.1095C19.147 18.3387 17.3397 20.146 15.1105 20.146C12.8811 20.146 11.074 18.3387 11.074 16.1095C11.074 13.88 12.8811 12.073 15.1105 12.073Z" fill="white"/>
<defs>
<radialGradient id="paint0_radial_13_80" cx="0" cy="0" r="1" gradientUnits="userSpaceOnUse" gradientTransform="translate(8.23437 33.3876) rotate(-90) scale(30.7233 28.5751)">
<stop stop-color="#FFDD55"/>
<stop offset="0.1" stop-color="#FFDD55"/>
<stop offset="0.5" stop-color="#FF543E"/>
<stop offset="1" stop-color="#C837AB"/>
</radialGradient>
<radialGradient id="paint1_radial_13_80" cx="0" cy="0" r="1" gradientUnits="userSpaceOnUse" gradientTransform="translate(-5.19262 2.23309) rotate(78.681) scale(13.7335 56.6099)">
<stop stop-color="#3771C8"/>
<stop offset="0.128" stop-color="#3771C8"/>
<stop offset="1" stop-color="#6600FF" stop-opacity="0"/>
</radialGradient>
<clipPath id="clip0_13_80">
<rect width="31" height="31" fill="white" transform="translate(128)"/>
</clipPath>
<clipPath id="clip1_13_80">
<rect width="31" height="31" fill="white" transform="translate(67)"/>
</clipPath>
</defs>
</svg>
